<svg width="68" height="68" viewBox="0 0 68 68" fill="none" xmlns="http://www.w3.org/2000/svg">
<circle cx="41" cy="13" r="5" fill="#6E9C9F"/>
<circle cx="55" cy="13" r="5" fill="#6E9C9F"/>
<path d="M32 13C32 15.7614 29.7614 18 27 18C24.2386 18 22 15.7614 22 13C22 10.2386 24.2386 8 27 8C29.7614 8 32 10.2386 32 13Z" fill="#6E9C9F"/>
<circle cx="13" cy="13" r="5" fill="#6E9C9F"/>
<circle cx="41" cy="27" r="5" fill="#6E9C9F"/>
<circle cx="55" cy="27" r="5" fill="#6E9C9F"/>
<path d="M32 27C32 29.7614 29.7614 32 27 32C24.2386 32 22 29.7614 22 27C22 24.2386 24.2386 22 27 22C29.7614 22 32 24.2386 32 27Z" fill="#6E9C9F"/>
<circle cx="13" cy="27" r="5" fill="#6E9C9F"/>
<circle cx="41" cy="41" r="5" fill="#6E9C9F"/>
<circle cx="55" cy="41" r="5" fill="#6E9C9F"/>
<path d="M32 41C32 43.7614 29.7614 46 27 46C24.2386 46 22 43.7614 22 41C22 38.2386 24.2386 36 27 36C29.7614 36 32 38.2386 32 41Z" fill="#6E9C9F"/>
<circle cx="13" cy="41" r="5" fill="#6E9C9F"/>
<circle cx="41" cy="55" r="5" fill="#6E9C9F"/>
<circle cx="55" cy="55" r="5" fill="#6E9C9F"/>
<path d="M32 55C32 57.7614 29.7614 60 27 60C24.2386 60 22 57.7614 22 55C22 52.2386 24.2386 50 27 50C29.7614 50 32 52.2386 32 55Z" fill="#6E9C9F"/>
<circle cx="13" cy="55" r="5" fill="#6E9C9F"/>
<rect x="1" y="1" width="66" height="66" stroke="#6E9C9F" stroke-width="2"/>
</svg>
